/* XPM */
static char *result[] = {
/* columns rows colors chars-per-pixel */
"64 64 124 2 ",
"   c #011B24",
".  c #1F2125",
"X  c #232224",
"o  c #2C2425",
"O  c #2E2829",
"+  c #332727",
"@  c #3F2B25",
"#  c #372B2A",
"$  c #3D2E2B",
"%  c #412D27",
"&  c #492E23",
"*  c #442E28",
"=  c #44312E",
"-  c #533326",
";  c #5D3A2C",
":  c #543F31",
">  c #5B3E35",
",  c #5D3F38",
"<  c #6D3F25",
"1  c #623E2F",
"2  c #613E30",
"3  c #564032",
"4  c #5C4135",
"5  c #5E423A",
"6  c #5F493D",
"7  c #6D4025",
"8  c #714125",
"9  c #744329",
"0  c #624535",
"q  c #6A4431",
"w  c #6C4835",
"e  c #64463B",
"r  c #68463C",
"t  c #66493C",
"y  c #6A4A3D",
"u  c #744737",
"i  c #7B4C34",
"p  c #77473A",
"a  c #724C3E",
"s  c #794F3D",
"d  c #7B503D",
"f  c #5C4740",
"g  c #5C4A42",
"h  c #624740",
"j  c #654C43",
"k  c #6C4D42",
"l  c #724E42",
"z  c #7C4E41",
"x  c #6E5145",
"c  c #665148",
"v  c #6E5349",
"b  c #735245",
"n  c #7A5344",
"m  c #735549",
"M  c #7B5549",
"N  c #834A26",
"B  c #884C25",
"V  c #804529",
"C  c #824C2E",
"Z  c #95472D",
"A  c #944A2D",
"S  c #8F5129",
"D  c #955427",
"F  c #9C5727",
"G  c #9F5826",
"H  c #95522B",
"J  c #9B522D",
"K  c #9C592C",
"L  c #824734",
"P  c #834B33",
"I  c #8F4830",
"U  c #874D3F",
"Y  c #904F3F",
"T  c #855137",
"R  c #8D5537",
"E  c #83523B",
"W  c #8A553C",
"Q  c #8C583D",
"!  c #925735",
"~  c #9B5533",
"^  c #975934",
"/  c #9C5A34",
"(  c #93563A",
")  c #9A573A",
"_  c #955B3D",
"`  c #995B3B",
"'  c #A14F2F",
"]  c #A05927",
"[  c #AD5A26",
"{  c #A4542C",
"}  c #AB562B",
"|  c #A55C2C",
" . c #AC5B2A",
".. c #B25A23",
"X. c #B05E28",
"o. c #A65731",
"O. c #A25C32",
"+. c #AD612B",
"@. c #B36427",
"#. c #B2632A",
"$. c #A66136",
"%. c #844F42",
"&. c #914F41",
"*. c #984F41",
"=. c #835542",
"-. c #895543",
";. c #8D5942",
":. c #845749",
">. c #8B5648",
",. c #84594B",
"<. c #8B5A4A",
"1. c #955243",
"2. c #9A5544",
"3. c #9C5847",
"4. c #925748",
"5. c #935C4B",
"6. c #9C5E4B",
"7. c #A35947",
"8. c #A15D4B",
"9. c #A95F4C",
"0. c #9D604C",
"q. c #A4614D",
"w. c #AA604C",
"e. c None",
/* pixels */
"e.e.e.e.e.e.e.e.e.e.e.e.e.e.e.e.e.e.e.e.e.e.e.e.e.e.e.e.e.e.e.e.e.e.e.e.e.e.e.e.e.e.e.e.e.e.e.e.e.e.e.e.e.e.e.e.e.e.e.e.e.e.e.e.",
"e.e.e.e.e.e.e.e.e.e.e.e.e.e.e.e.e.e.e.e.e.e.e.e.e.e.e.e.e.e.e.e.e.e.e.e.e.e.e.e.e.e.e.e.e.e.e.e.e.e.e.e.e.e.e.e.e.e.e.e.e.e.e.e.",
"e.e.e.e.e.e.e.e.e.e.e.e.e.e.e.e.e.e.e.e.e.e.e.e.e.e.e.e.e.e.e.e.e.e.e.e.e.e.e.e.e.e.e.e.e.e.e.e.e.e.e.e.e.e.e.e.e.e.e.e.e.e.e.e.",
"e.e.e.e.e.e.e.e.e.e.e.e.e.e.e.e.e.e.e.e.e.e.e.e.e.e.e.e.e.e.e.e.e.e.e.e.e.e.e.e.e.e.e.e.e.e.e.e.e.e.e.e.e.e.e.e.e.e.e.e.e.e.e.e.",
"e.e.e.e.e.e.e.e.e.e.e.e.e.e.e.e.e.e.e.e.e.e.e.e.e.e.e.e.e.e.e.e.e.e.e.e.e.e.e.e.e.e.e.e.e.e.e.e.e.e.e.e.e.e.e.e.e.e.e.e.e.e.e.e.",
"e.e.e.e.e.e.e.e.e.e.e.e.e.e.e.e.e.e.e.e.e.e.e.e.e.e.e.e.e.e.e.e.e.e.e.e.e.e.e.e.e.e.e.e.e.e.e.e.e.e.e.e.e.e.e.e.e.e.e.e.e.e.e.e.",
"e.e.e.e.e.e.e.e.e.e.e.e.e.e.e.e.e.e.e.e.e.e.e.e.e.e.e.e.e.e.e.e.e.e.e.e.e.e.e.e.e.e.e.e.e.e.e.e.e.e.e.e.e.e.e.e.e.e.e.e.e.e.e.e.",
"e.e.e.e.e.e.e.e.e.e.e.e.e.e.e.e.e.e.e.e.e.e.e.e.e.e.e.e.e.e.e.e.e.e.e.e.e.e.e.e.e.e.e.e.e.e.e.e.e.e.e.e.e.e.e.e.e.e.e.e.e.e.e.e.",
"e.e.e.e.e.e.e.e.e.e.e.e.e.e.e.e.e.e.e.e.e.e.e.e.e.e.e.e.e.e.e.e.e.e.e.e.e.e.e.e.e.e.e.e.e.e.e.e.e.e.e.e.e.e.e.e.e.e.e.e.e.e.e.e.",
"e.e.e.e.e.e.e.e.e.e.e.e.e.e.e.e.e.e.e.e.e.e.e.e.e.e.e.e.e.e.e.e.e.e.e.e.e.e.e.e.e.e.e.e.e.e.e.e.e.e.e.e.e.e.e.e.e.e.e.e.e.e.e.e.",
"e.e.e.e.e.e.e.e.e.e.e.e.e.e.e.e.e.e.e.e.e.e.e.e.e.e.e.e.e.e.e.e.e.e.e.e.e.e.e.e.e.e.e.e.e.e.e.e.e.e.e.e.e.e.e.e.e.e.e.e.e.e.e.e.",
"e.e.e.e.e.e.e.e.e.e.e.e.e.e.e.e.e.e.e.e.e.e.e.e.e.e.e.e.e.e.e.e.e.e.e.e.e.e.e.e.e.e.e.e.e.e.e.e.e.e.e.e.e.e.e.e.e.e.e.e.e.e.e.e.",
"e.e.e.e.e.e.e.e.e.e.e.e.e.e.e.e.e.e.e.e.e.e.e.e.e.e.e.e.e.e.e.e.e.e.e.e.e.e.e.e.e.e.e.e.e.e.e.e.e.e.e.e.e.e.e.e.e.e.e.e.e.e.e.e.",
"e.e.e.e.e.e.e.e.e.e.e.e.e.e.e.e.e.e.e.e.e.e.e.e.e.e.e.e.e.e.e.e.e.e.e.e.e.e.e.e.e.e.e.e.e.e.e.e.e.e.e.e.e.e.e.e.e.e.e.e.e.e.e.e.",
"e.e.e.e.e.e.e.e.e.e.e.e.e.e.e.e.e.e.e.e.e.e.e.e.e.e.e.e.e.e.e.e.e.e.e.e.e.e.e.e.e.e.e.e.e.e.e.e.e.e.e.e.e.e.e.e.e.e.e.e.e.e.e.e.",
"e.e.e.e.e.e.e.e.e.e.e.e.e.e.e.e.e.e.e.e.e.e.e.e.e.e.e.e.e.e.e.e.e.e.e.e.e.e.e.e.e.e.e.e.e.e.e.e.e.e.e.e.e.e.e.e.e.e.e.e.e.e.e.e.",
"e.e.e.e.e.e.e.e.e.e.e.e.e.e.e.e.e.e.e.e.e.e.e.e.e.e.e.e.e.e.e.e.e.e.e.e.e.e.e.e.e.e.e.e.e.e.e.e.e.e.e.e.e.e.e.e.e.e.e.e.e.e.e.e.",
"e.e.e.e.e.e.e.e.e.e.e.e.e.e.e.e.e.e.e.e.e.e.e.e.e.e.e.e.e.e.e.e.e.e.e.e.e.e.e.e.e.e.e.e.e.e.e.e.e.e.e.e.e.e.e.e.e.e.e.e.e.e.e.e.",
"e.e.e.e.e.e.e.e.e.e.e.e.e.e.e.e.e.e.e.e.e.e.e.e.e.e.e.e.e.e.e.e.e.e.e.e.e.e.e.e.e.e.e.e.e.e.e.e.e.e.e.e.e.e.e.e.e.e.e.e.e.e.e.e.",
"e.e.e.e.e.e.e.e.e.e.e.e.e.e.e.e.e.e.e.e.e.e.e.e.e.e.e.e.e.e.e.e.e.e.e.e.e.e.e.e.e.e.e.e.e.e.e.e.e.e.e.e.e.e.e.e.e.e.e.e.e.e.e.e.",
"e.e.e.e.e.e.e.e.e.e.e.e.e.e.e.e.e.e.e.e.e.e.e.e.e.e.e.e.e.e.e.e.e.e.e.e.e.e.e.e.e.e.e.e.e.e.e.e.e.e.e.e.e.e.e.e.e.e.e.e.e.e.e.e.",
"e.e.e.e.e.e.e.e.e.e.e.e.e.e.e.e.e.e.e.e.e.e.e.e.e.e.e.e.e.e.e.e.e.e.e.e.e.e.e.e.e.e.e.e.e.e.e.e.e.e.e.e.e.e.e.e.e.e.e.e.e.e.e.e.",
"e.e.e.e.e.e.e.e.e.e.e.e.e.e.e.e.e.e.e.e.e.e.e.e.e.e.e.e.e.e.e.e.e.e.e.e.e.e.e.e.e.e.e.e.e.e.e.e.e.e.e.e.e.e.e.e.e.e.e.e.e.e.e.e.",
"e.e.e.e.e.e.e.e.e.e.e.e.e.e.e.e.e.e.e.e.e.e.e.e.e.e.e.e.e.e.e.e.e.e.e.e.e.e.e.e.e.e.e.e.e.e.e.e.e.e.e.e.e.e.e.e.e.e.e.e.e.e.e.e.",
"e.e.e.e.e.e.e.e.e.e.e.e.e.e.e.e.e.k r e r e r r e r r e.e.e.e.e.e.e.e.e.e.e.e.e.e.e.e.e.e.e.e.e.e.e.e.e.e.e.e.e.e.e.e.e.e.e.e.e.",
"e.e.e.e.e.e.e.e.e.e.e.e.e.e.e.e.r r r r r r r r r r r r e.e.e.e.e.e.e.e.e.e.e.e.e.e.e.e.e.e.e.e.e.e.e.e.e.e.e.e.e.e.e.e.e.e.e.e.",
"e.e.e.e.e.e.e.e.e.e.e.e.e.e.e.e.r r l n l l l l n l r y e.e.e.e.e.e.e.e.e.e.e.e.e.e.e.e.e.e.e.e.e.e.e.e.e.e.e.e.e.e.e.e.e.e.e.e.",
"e.e.e.e.e.e.e.e.e.e.e.e.e.e.e.e r k l n l l l n M z a y y e.e.e.e.e.e.e.e.e.e.e.e.e.e.e.e.e.e.e.e.e.e.e.e.e.e.e.e.e.e.e.e.e.e.e.",
"e.e.e.e.e.e.e.e.e.e.e.e.e.5 f h h k l l k k k l l z a y r y r e.e.e.e.e.e.e.e.e.e.e.e.e.e.e.e.e.e.e.e.e.e.e.e.e.e.e.e.e.e.e.e.e.",
"e.e.e.e.e.e.e.e.e.e.e.e.h e e r y y y l y k y a a l a a a r r r e.e.e.e.e.e.e.e.e.e.e.e.e.e.e.e.e.e.e.e.e.e.e.e.e.e.e.e.e.e.e.e.",
"e.e.e.e.e.e.e.e.e.e.e.e.r a n =.%.s s d d d s s a a a l n l r y e.e.e.e.e.e.e.e.e.e.e.e.e.e.e.e.e.e.e.e.e.e.e.e.e.e.e.e.e.e.e.e.",
"e.e.e.e.e.e.e.e.e.e.e.q i T ` ` ( ( ( R ( R W E d a l l z n k y y e.e.e.e.e.e.e.e.e.e.e.e.e.e.e.e.e.e.e.e.e.e.e.e.e.e.e.e.e.e.e.",
"e.e.e.e.e.e.e.e.e.X - 9 P ^ $.$.$.O.$.| $./ / R E a y k l l a y y r r e.e.e.e.e.e.e.e.e.e.e.e.e.e.e.e.e.e.e.e.e.e.e.e.e.e.e.e.e.",
"e.e.e.e.e.e.e.e.  o - 9 S O.+.#.+.+.+.+.+.+.| ^ E a k k a a a a a r r r e.e.e.e.e.e.e.e.e.e.e.e.e.e.e.e.e.e.e.e.e.e.e.e.e.e.e.e.",
"e.e.e.e.e.e.e.e.. + ; N K +.@.@.+.+.+.+.@.@.+./ ! E a a a a a n n l r r e.e.e.e.e.e.e.e.e.e.e.e.e.e.e.e.e.e.e.e.e.e.e.e.e.e.e.e.",
"e.e.e.e.e.e.e.# O $ 0 C K +.@.+.G S D G ] +.@.$./ ! E E s s a l n z r e e.e.e.e.e.e.e.e.e.e.e.e.e.e.e.e.e.e.e.e.e.e.e.e.e.e.e.e.",
"e.e.e.e.e.% % @ # = 2 P K +.+.G B 8 8 B D +.+.+.| / / W E s y l l l r e e.e.e.e.e.e.e.e.e.e.e.e.e.e.e.e.e.e.e.e.e.e.e.e.e.e.e.e.",
"e.e.e.e.@ @ * = $ = 0 P K +.| H 7 & & 7 S +.@.#.#.+.| ^ W d a y l l r r e.e.e.e.e.e.e.e.e.e.e.e.e.e.e.e.e.e.e.e.e.e.e.e.e.e.e.e.",
"e.e.e.e.% @ = = $ = ; C K +.+.D 8 & & 7 S | #.@.@.@.+./ R d y y l l e r e.e.e.e.e.e.e.e.e.e.e.e.e.e.e.e.e.e.e.e.e.e.e.e.e.e.e.e.",
"e.e.e.e.e.% % $ # = 1 C K +.+.K B 7 8 9 K +.#.#.@.@.+.O.R n b x b l k k k e.e.e.e.e.e.e.e.e.e.e.e.e.e.e.e.e.e.e.e.e.e.e.e.e.e.e.",
"e.e.e.e.e.e.e.# O $ 2 P K +.#.+.G S D H | +.+.+.@.@.+./ ;.n v v m m l x j e f e.e.e.e.e.e.e.e.e.e.e.e.e.e.e.e.e.e.e.e.e.e.e.e.e.",
"e.e.e.e.e.e.e.e.X + ; C K +.#.#.+.+.| | +.+.+.+.@.@.O./ ;.n v v m m v x k h 5 f e.e.e.e.e.e.e.e.e.e.e.e.e.e.e.e.e.e.e.e.e.e.e.e.",
"e.e.e.e.e.e.e.e.  o - 9 S | #.#.+.#.+.#.+.+.+.@.@.+.+./ Q n c x v m b m m v h 6 e.e.e.e.e.e.e.e.e.e.e.e.e.e.e.e.e.e.e.e.e.e.e.e.",
"e.e.e.e.e.e.e.e.e.X - 9 S K } #.@.#.#.#.X.+.+.+.+. .| ~ Q n c c k k x b M m j t h e.e.e.e.e.e.e.e.e.e.e.e.e.e.e.e.e.e.e.e.e.e.e.",
"e.e.e.e.e.e.e.e.e.e.e.V A ~ o. .X. . . .[  . .[ X.X.{ ^ T y t 6 h t y x m m x x h e > e.e.e.e.e.e.e.e.e.e.e.e.e.e.e.e.e.e.e.e.e.",
"e.e.e.e.e.e.e.e.e.e.e.e.A A o.}  .[  . . . . . .X. .} ^ C y 4 4 4 0 e y b m v x k 5 > > e.e.e.e.e.e.e.e.e.e.e.e.e.e.e.e.e.e.e.e.",
"e.e.e.e.e.e.e.e.e.e.e.e.A Z ' } o.}  .[ }  . .[ ..[ | D C w 3 3 3 0 0 w y m m b l k , , e.e.e.e.e.e.e.e.e.e.e.e.e.e.e.e.e.e.e.e.",
"e.e.e.e.e.e.e.e.e.e.e.e.Z A ' o.} [ [ [ [  . .[ [ ..{ D i q 3 3 3 4 0 0 y y x b b k e 5 5 e.e.e.e.e.e.e.e.e.e.e.e.e.e.e.e.e.e.e.",
"e.e.e.e.e.e.e.e.e.e.e.e.A Z { } } [ [ ..[  . . .[ [ { J i 7 3 3 3 3 0 0 0 6 w x y y e e 5 5 > 4 4 5 , e.e.e.e.e.e.e.e.e.e.e.e.e.",
"e.e.e.e.e.e.e.e.e.e.e.e.A A ' }  .[ [ [ [ } } [ [ [ { H C w 3 3 3 0 0 0 0 0 0 0 y y y e e 5 4 5 , 4 , 4 e.e.e.e.e.e.e.e.e.e.e.e.",
"e.e.e.e.e.e.e.e.e.e.e.e.I I o.o.o.{ }  . . . .[ X.[ { J i w 4 4 0 0 0 0 0 0 0 t t y y y e e e y k y e 5 e.e.e.e.e.e.e.e.e.e.e.e.",
"e.e.e.e.e.e.e.e.e.e.e.e.L I Y ) ) ) / O.{  .[ ......| ~ T a 6 6 t w y t t w t w y y y y y y y y l y e e e e.e.e.e.e.e.e.e.e.e.e.",
"e.e.e.e.e.e.e.e.e.e.e.e.u u -.;.;.=.( ` O.[ ........{ ~ W a c j c x x w y b y y y y y y y y y y y y t e 0 5 4 e.e.e.e.e.e.e.e.e.",
"e.e.e.e.e.e.e.e.e.e.e.e.r r z M m m =.;.~ [ [ ...... .~ Q n v v v m v m m b m x a y y y y y t y y y y t e e 4 , e.e.e.e.e.e.e.e.",
"e.e.e.e.e.e.e.e.e.e.e.e.5 f h j c c m -.) { }  .[ } O.) -.n m v m m m m m m m m y y y t y y y y y y y y t e 4 , e.e.e.e.e.e.e.e.",
"e.e.e.e.e.e.e.e.e.e.e.e.e.5 f g g j x M W ( ~ / ~ ~ ) Q =.m v v m m m m m m m m y y t y e y y k y y y e e 5 4 e.e.e.e.e.e.e.e.e.",
"e.e.e.e.e.e.e.e.e.e.e.e.e.e.e.g f f k b n -.-.W W Q E =.n m v v v v v m m b x x k y y y y y r k l k e e e e.e.e.e.e.e.e.e.e.e.e.",
"e.e.e.e.e.e.e.e.e.e.e.e.e.e.e.e.h h j b b l M M m M m m v v v m v m m m x x y y e e e e e e e k k y 4 4 e.e.e.e.e.e.e.e.e.e.e.e.",
"e.e.e.e.e.e.e.e.e.e.e.e.e.e.e.e.2 k l m m m m m m m m n m n M M M M m b y t 6 0 e , 5 4 , , 2 5 , 4 , , e.e.e.e.e.e.e.e.e.e.e.e.",
"e.e.e.e.e.e.e.e.e.e.e.e.e.e.e.e.p l %.:.:.,.,.M M M M M ,.,.,.,.;.M M n b t 6 3 , , , , , , 5 , , 5 5 e.e.e.e.e.e.e.e.e.e.e.e.e.",
"e.e.e.e.e.e.e.e.e.e.e.e.e.e.e.e.U %.&.3.5.5.5.<.>.>.-.>.<.5.5.5.5.>.-.%.d e.e.e.e.e.e.e.e.e.e.e.e.e.e.e.e.e.e.e.e.e.e.e.e.e.e.e.",
"e.e.e.e.e.e.e.e.e.e.e.e.e.e.e.e.&.&.3.8.q.0.0.2.2.1.1.4.6.6.0.q.9.2.1.&.e.e.e.e.e.e.e.e.e.e.e.e.e.e.e.e.e.e.e.e.e.e.e.e.e.e.e.e.",
"e.e.e.e.e.e.e.e.e.e.e.e.e.e.e.e.1.( 8.w.q.q.q.6.2.2.1.2.8.q.q.q.9.7.) *.e.e.e.e.e.e.e.e.e.e.e.e.e.e.e.e.e.e.e.e.e.e.e.e.e.e.e.e.",
"e.e.e.e.e.e.e.e.e.e.e.e.e.e.e.e.*.2.7.w.q.q.q.8.2.2.2.3.8.q.q.q.9.7.1.2.e.e.e.e.e.e.e.e.e.e.e.e.e.e.e.e.e.e.e.e.e.e.e.e.e.e.e.e."
};
