/* XPM */
static char *result[] = {
/* columns rows colors chars-per-pixel */
"64 64 105 2 ",
"   c #000001",
".  c #000002",
"X  c #000003",
"o  c #000005",
"O  c #000007",
"+  c #00000C",
"@  c #00020D",
"#  c #00030D",
"$  c #00040E",
"%  c #00060E",
"&  c #00080F",
"*  c #000C0F",
"=  c #000011",
"-  c #000412",
";  c #000512",
":  c #060E13",
">  c #070F13",
",  c #0A1113",
"<  c #0B1113",
"1  c #0B1213",
"2  c #0F1113",
"3  c #0C1213",
"4  c #0D1213",
"5  c #0D1313",
"6  c #121314",
"7  c gray8",
"8  c #151414",
"9  c #161514",
"0  c #171514",
"q  c #1B1915",
"w  c #231A17",
"e  c #3C221E",
"r  c #3A251D",
"t  c #332C1A",
"y  c #40271F",
"u  c #40291F",
"i  c #41291F",
"p  c #432A20",
"a  c #4A3622",
"s  c #673F2D",
"d  c #6B382F",
"f  c #6D2531",
"g  c #753A34",
"h  c #773E34",
"j  c #783F35",
"k  c #5A4D26",
"l  c #5E4F28",
"z  c #65562A",
"x  c #66572A",
"c  c #68592B",
"v  c #69592B",
"b  c #695A2B",
"n  c #714331",
"m  c #734632",
"M  c #744732",
"N  c #7C4036",
"B  c #7C4136",
"V  c #774933",
"C  c #7C4836",
"Z  c #7E4B36",
"A  c #7F4C37",
"S  c #804E37",
"D  c #814F37",
"F  c #834E38",
"G  c #824F38",
"H  c #855139",
"J  c #865139",
"K  c #89543B",
"L  c #846037",
"P  c #8E633B",
"I  c #8E633C",
"U  c #926A3D",
"Y  c #936B3D",
"T  c #956C3E",
"R  c #996F40",
"E  c #A17D42",
"W  c #A18A40",
"Q  c #A18A41",
"!  c #A88D44",
"~  c #B49A48",
"^  c #B59B48",
"/  c #BA9B4B",
"(  c #BB9C4B",
")  c #BB9D4B",
"_  c #B99F4A",
"`  c #BA9F4A",
"'  c #BD9E4C",
"]  c #BBA04B",
"[  c #BEA04C",
"{  c #C2A24E",
"}  c #C5A84F",
"|  c #CAAD51",
" . c #CBAD51",
".. c #CDB052",
"X. c #CEB152",
"o. c #CFB153",
"O. c #CEB252",
"+. c #CFB353",
"@. c #D0B253",
"#. c #D0B353",
"$. c #D1B254",
"%. c #D2B454",
"&. c #D5B855",
"*. c #D6B856",
"=. c #D7B956",
/* pixels */
"7 7 7 7 7 7 7 7 7 7 7 7 7 7 7 7 7 7 7 7 7 7 7 7 7 7 7 7 7 7 7 7 7 7 7 7 7 7 7 7 7 7 7 7 7 7 7 7 7 7 7 7 7 7 7 7 7 7 7 7 7 7 7 7 ",
"7 7 9 2 ; = = = = = = = = = = = = = = = = = = = = = = = = = = = = = = = = = = = = = = = = = = = = = = = = = = = = = = ; 2 9 7 7 ",
"7 9 q = O   X X X X X X X X X X X X X X X X X X X X X X X X X X X X X X X X X X X X X X X X X X X X X X X X X X X X   O = q 9 7 ",
"7 2 = t k c x z z z z z z z z z z z z z z z z z z z z z z z z z z z z z z z z z z z z z z z z z z z z z z z z z z x c k t = 2 7 ",
"7 ; O k Q ` ^ ~ ~ ~ ~ ~ ~ ~ ~ ~ ~ ~ ~ ~ ~ ~ ~ ~ ~ ~ ~ ~ ~ ~ ~ ~ ~ ~ ~ ~ ~ ~ ~ ~ ~ ~ ~ ~ ~ ~ ~ ~ ~ ~ ~ ~ ~ ~ ~ ~ ~ ^ ` W k O ; 7 ",
"7 =   v ` *.$.o.@.@.@.@.@.@.@.@.@.@.@.@.@.@.@.@.@.@.@.@.@.@.@.@.@.@.@.@.@.@.@.@.@.@.@.@.@.@.@.@.@.@.@.@.@.@.@.@.@.%.=.] b   = 7 ",
"7 = X x ^ $. .| ..O.X.X.X.X.X.X.X.X.X.X.X.X.X.X.X.X.X.X.X.X.X.X.X.X.X.X.X.X.X.X.X.X.X.X.X.X.X.X.X.X.X.X.X.X.X.X.X.+.&._ c . = 7 ",
"7 = X z ~ o.| } [ / ( ) ) ) ) ) ) ) ) ) ) ) ) ) ) ) ) ) ) ) ) ) ) ) ) ) ) ) ) ) ) ) ) ) ) ) ) ) ) ) ) ) ) ) ) ) ) ' { ! l o - 7 ",
"7 = X z ~ @...[ E P U Y Y Y Y Y Y Y Y Y Y Y Y Y Y Y Y Y Y Y Y Y Y Y Y Y Y Y Y Y Y Y Y Y Y Y Y Y Y Y Y Y Y Y Y Y Y T R L a + : 7 ",
"7 = X z ~ @.O./ I f g h h h h h h h h h h h h h h h h h h h h h h h h h h h h h h h h h h h h h h h h h h h h h h j B d e * 4 7 ",
"7 = X z ~ @.X.( U g C Z Z Z Z Z Z Z Z Z Z Z Z Z Z Z Z Z Z Z Z Z Z Z Z Z Z Z Z Z Z Z Z Z Z Z Z Z Z Z Z Z Z Z Z Z Z A F n y % 1 7 ",
"7 = X z ~ @.X.) Y h Z S S S S S S S S S S S S S S S S S S S S S S S S S S S S S S S S S S S S S S S S S S S S S S D H m u $ < 7 ",
"7 = X z ~ @.X.) Y h Z S S S S S S S S S S S S S S S S S S S S S S S S S S S S S S S S S S S S S S S S S S S S S S D H m u $ < 7 ",
"7 = X z ~ @.X.) Y h Z S S S S S S S S S S S S S S S S S S S S S S S S S S S S S S S S S S S S S S S S S S S S S S D H m u $ < 7 ",
"7 = X z ~ @.X.) Y h Z S S S S S S S S S S S S S S S S S S S S S S S S S S S S S S S S S S S S S S S S S S S S S S D H m u $ < 7 ",
"7 = X z ~ @.X.) Y h Z S S S S S S S S S S S S S S S S S S S S S S S S S S S S S S S S S S S S S S S S S S S S S S D H m u $ < 7 ",
"7 = X z ~ @.X.) Y h Z S S S S S S S S S S S S S S S S S S S S S S S S S S S S S S S S S S S S S S S S S S S S S S D H m u $ < 7 ",
"7 = X z ~ @.X.) Y h Z S S S S S S S S S S S S S S S S S S S S S S S S S S S S S S S S S S S S S S S S S S S S S S D H m u $ < 7 ",
"7 = X z ~ @.X.) Y h Z S S S S S S S S S S S S S S S S S S S S S S S S S S S S S S S S S S S S S S S S S S S S S S D H m u $ < 7 ",
"7 = X z ~ @.X.) Y h Z S S S S S S S S S S S S S S S S S S S S S S S S S S S S S S S S S S S S S S S S S S S S S S D H m u $ < 7 ",
"7 = X z ~ @.X.) Y h Z S S S S S S S S S S S S S S S S S S S S S S S S S S S S S S S S S S S S S S S S S S S S S S D H m u $ < 7 ",
"7 = X z ~ @.X.) Y h Z S S S S S S S S S S S S S S S S S S S S S S S S S S S S S S S S S S S S S S S S S S S S S S D H m u $ < 7 ",
"7 = X z ~ @.X.) Y h Z S S S S S S S S S S S S S S S S S S S S S S S S S S S S S S S S S S S S S S S S S S S S S S D H m u $ < 7 ",
"7 = X z ~ @.X.) Y h Z S S S S S S S S S S S S S S S S S S S S S S S S S S S S S S S S S S S S S S S S S S S S S S D H m u $ < 7 ",
"7 = X z ~ @.X.) Y h Z S S S S S S S S S S S S S S S S S S S S S S S S S S S S S S S S S S S S S S S S S S S S S S D H m u $ < 7 ",
"7 = X z ~ @.X.) Y h Z S S S S S S S S S S S S S S S S S S S S S S S S S S S S S S S S S S S S S S S S S S S S S S D H m u $ < 7 ",
"7 = X z ~ @.X.) Y h Z S S S S S S S S S S S S S S S S S S S S S S S S S S S S S S S S S S S S S S S S S S S S S S D H m u $ < 7 ",
"7 = X z ~ @.X.) Y h Z S S S S S S S S S S S S S S S S S S S S S S S S S S S S S S S S S S S S S S S S S S S S S S D H m u $ < 7 ",
"7 = X z ~ @.X.) Y h Z S S S S S S S S S S S S S S S S S S S S S S S S S S S S S S S S S S S S S S S S S S S S S S D H m u $ < 7 ",
"7 = X z ~ @.X.) Y h Z S S S S S S S S S S S S S S S S S S S S S S S S S S S S S S S S S S S S S S S S S S S S S S D H m u $ < 7 ",
"7 = X z ~ @.X.) Y h Z S S S S S S S S S S S S S S S S S S S S S S S S S S S S S S S S S S S S S S S S S S S S S S D H m u $ < 7 ",
"7 = X z ~ @.X.) Y h Z S S S S S S S S S S S S S S S S S S S S S S S S S S S S S S S S S S S S S S S S S S S S S S D H m u $ < 7 ",
"7 = X z ~ @.X.) Y h Z S S S S S S S S S S S S S S S S S S S S S S S S S S S S S S S S S S S S S S S S S S S S S S D H m u $ < 7 ",
"7 = X z ~ @.X.) Y h Z S S S S S S S S S S S S S S S S S S S S S S S S S S S S S S S S S S S S S S S S S S S S S S D H m u $ < 7 ",
"7 = X z ~ @.X.) Y h Z S S S S S S S S S S S S S S S S S S S S S S S S S S S S S S S S S S S S S S S S S S S S S S D H m u $ < 7 ",
"7 = X z ~ @.X.) Y h Z S S S S S S S S S S S S S S S S S S S S S S S S S S S S S S S S S S S S S S S S S S S S S S D H m u $ < 7 ",
"7 = X z ~ @.X.) Y h Z S S S S S S S S S S S S S S S S S S S S S S S S S S S S S S S S S S S S S S S S S S S S S S D H m u $ < 7 ",
"7 = X z ~ @.X.) Y h Z S S S S S S S S S S S S S S S S S S S S S S S S S S S S S S S S S S S S S S S S S S S S S S D H m u $ < 7 ",
"7 = X z ~ @.X.) Y h Z S S S S S S S S S S S S S S S S S S S S S S S S S S S S S S S S S S S S S S S S S S S S S S D H m u $ < 7 ",
"7 = X z ~ @.X.) Y h Z S S S S S S S S S S S S S S S S S S S S S S S S S S S S S S S S S S S S S S S S S S S S S S D H m u $ < 7 ",
"7 = X z ~ @.X.) Y h Z S S S S S S S S S S S S S S S S S S S S S S S S S S S S S S S S S S S S S S S S S S S S S S D H m u $ < 7 ",
"7 = X z ~ @.X.) Y h Z S S S S S S S S S S S S S S S S S S S S S S S S S S S S S S S S S S S S S S S S S S S S S S D H m u $ < 7 ",
"7 = X z ~ @.X.) Y h Z S S S S S S S S S S S S S S S S S S S S S S S S S S S S S S S S S S S S S S S S S S S S S S D H m u $ < 7 ",
"7 = X z ~ @.X.) Y h Z S S S S S S S S S S S S S S S S S S S S S S S S S S S S S S S S S S S S S S S S S S S S S S D H m u $ < 7 ",
"7 = X z ~ @.X.) Y h Z S S S S S S S S S S S S S S S S S S S S S S S S S S S S S S S S S S S S S S S S S S S S S S D H m u $ < 7 ",
"7 = X z ~ @.X.) Y h Z S S S S S S S S S S S S S S S S S S S S S S S S S S S S S S S S S S S S S S S S S S S S S S D H m u $ < 7 ",
"7 = X z ~ @.X.) Y h Z S S S S S S S S S S S S S S S S S S S S S S S S S S S S S S S S S S S S S S S S S S S S S S D H m u $ < 7 ",
"7 = X z ~ @.X.) Y h Z S S S S S S S S S S S S S S S S S S S S S S S S S S S S S S S S S S S S S S S S S S S S S S D H m u $ < 7 ",
"7 = X z ~ @.X.) Y h Z S S S S S S S S S S S S S S S S S S S S S S S S S S S S S S S S S S S S S S S S S S S S S S D H m u $ < 7 ",
"7 = X z ~ @.X.) Y h Z S S S S S S S S S S S S S S S S S S S S S S S S S S S S S S S S S S S S S S S S S S S S S S D H m u $ < 7 ",
"7 = X z ~ @.X.) Y h Z S S S S S S S S S S S S S S S S S S S S S S S S S S S S S S S S S S S S S S S S S S S S S S D H m u $ < 7 ",
"7 = X z ~ @.X.) Y h Z S S S S S S S S S S S S S S S S S S S S S S S S S S S S S S S S S S S S S S S S S S S S S S D H m u $ < 7 ",
"7 = X z ~ @.X.) Y h Z S S S S S S S S S S S S S S S S S S S S S S S S S S S S S S S S S S S S S S S S S S S S S S D H m u $ < 7 ",
"7 = X z ~ @.X.) Y h Z S S S S S S S S S S S S S S S S S S S S S S S S S S S S S S S S S S S S S S S S S S S S S S D H m u $ < 7 ",
"7 = X z ~ @.X.) Y h Z S S S S S S S S S S S S S S S S S S S S S S S S S S S S S S S S S S S S S S S S S S S S S S D H m u $ < 7 ",
"7 = X z ~ @.X.) Y h Z S S S S S S S S S S S S S S S S S S S S S S S S S S S S S S S S S S S S S S S S S S S S S S D H m u $ < 7 ",
"7 = X z ~ @.X.) Y h Z S S S S S S S S S S S S S S S S S S S S S S S S S S S S S S S S S S S S S S S S S S S S S S D H m u $ < 7 ",
"7 = X x ^ %.#.' T j A D D D D D D D D D D D D D D D D D D D D D D D D D D D D D D D D D D D D D D D D D D D D D D G J M i $ < 7 ",
"7 =   v ` =.&.{ R N F H H H H H H H H H H H H H H H H H H H H H H H H H H H H H H H H H H H H H H H H H H H H H H J K V p @ , 7 ",
"7 ; O k Q ] _ ! L d n m m m m m m m m m m m m m m m m m m m m m m m m m m m m m m m m m m m m m m m m m m m m m m M V s r & 4 7 ",
"7 2 = t k b c l a e y u u u u u u u u u u u u u u u u u u u u u u u u u u u u u u u u u u u u u u u u u u u u u u i p r w < 6 7 ",
"7 9 q = O   . o + * % $ $ $ $ $ $ $ $ $ $ $ $ $ $ $ $ $ $ $ $ $ $ $ $ $ $ $ $ $ $ $ $ $ $ $ $ $ $ $ $ $ $ $ $ $ $ $ # & < 0 8 7 ",
"7 7 9 2 ; = = ; > 5 3 < < < < < < < < < < < < < < < < < < < < < < < < < < < < < < < < < < < < < < < < < < < < < < < , 4 6 8 7 7 ",
"7 7 7 7 7 7 7 7 7 7 7 7 7 7 7 7 7 7 7 7 7 7 7 7 7 7 7 7 7 7 7 7 7 7 7 7 7 7 7 7 7 7 7 7 7 7 7 7 7 7 7 7 7 7 7 7 7 7 7 7 7 7 7 7 "
};
