/* XPM */
static char *result[] = {
/* columns rows colors chars-per-pixel */
"64 64 193 2 ",
"   c #181719",
".  c #1E1D1E",
"X  c #161618",
"o  c #201D1E",
"O  c #25201F",
"+  c #180021",
"@  c #1C1E22",
"#  c #241222",
"$  c #1D2A32",
"%  c #1F323B",
"&  c #232124",
"*  c #2C292C",
"=  c #27272C",
"-  c #34262B",
";  c #36292C",
":  c #3A2B2E",
">  c #3A262D",
",  c #292C32",
"<  c #242C34",
"1  c #3F2D30",
"2  c #2E333A",
"3  c #363237",
"4  c #38393F",
"5  c #560326",
"6  c #422A2E",
"7  c #4D2B2E",
"8  c #432D31",
"9  c #492E35",
"0  c #443233",
"q  c #4C3435",
"w  c #43343A",
"e  c #4D3538",
"r  c #4F3B39",
"t  c #543335",
"y  c #5D3435",
"u  c #523936",
"i  c #523738",
"p  c #543B3B",
"a  c #5A3E3C",
"s  c #6A2C2D",
"d  c #792531",
"f  c #64393B",
"g  c #693D3C",
"h  c #633437",
"j  c #7E3134",
"k  c #733936",
"l  c #71373C",
"z  c #713A3D",
"x  c #7A3C3E",
"c  c #5D413E",
"v  c #61433F",
"b  c #6E403C",
"n  c #2E3842",
"m  c #373E48",
"M  c #7A3E43",
"N  c #174455",
"B  c #2E414F",
"V  c #34414D",
"C  c #3D4651",
"Z  c #3C4955",
"A  c #3A4D5B",
"S  c #324754",
"D  c #395A6C",
"F  c #395E72",
"G  c #3B6275",
"H  c #4D4341",
"J  c #524242",
"K  c #5C4342",
"L  c #5D4A46",
"P  c #4C4E57",
"I  c #544651",
"U  c #644541",
"Y  c #6A4543",
"T  c #654843",
"R  c #6C4C45",
"E  c #6E4E49",
"W  c #764642",
"Q  c #754946",
"!  c #794C45",
"~  c #724D49",
"^  c #7C4B49",
"/  c #6F5047",
"(  c #715147",
")  c #735349",
"_  c #79574C",
"`  c #7B5A4C",
"'  c #665252",
"]  c #6C5E5E",
"[  c #675459",
"{  c #7B5C54",
"}  c #725B56",
"|  c #7C625A",
" . c #435665",
".. c #415867",
"X. c #5C5D62",
"o. c #565964",
"O. c #465F72",
"+. c #495E71",
"@. c #525F70",
"#. c #615867",
"$. c #655F70",
"%. c #4A6377",
"&. c #536576",
"*. c #686267",
"=. c #726969",
"-. c #726362",
";. c #676071",
":. c #862F2D",
">. c #8B3432",
",. c #823B37",
"<. c #843538",
"1. c #843B3A",
"2. c #8A3E3F",
"3. c #963939",
"4. c #A63F3C",
"5. c #9E443F",
"6. c #AC433E",
"7. c #A1403D",
"8. c #8E3E41",
"9. c #864344",
"0. c #8E4449",
"q. c #944646",
"w. c #9A4745",
"e. c #9D4C47",
"r. c #84504D",
"t. c #815E4F",
"y. c #8B504A",
"u. c #8A4C53",
"i. c #944A52",
"p. c #895550",
"a. c #835C52",
"s. c #8C5B54",
"d. c #9C5B52",
"f. c #A54B45",
"g. c #AB4C45",
"h. c #A84543",
"j. c #B24D44",
"k. c #A5534B",
"l. c #AC524A",
"z. c #B45047",
"x. c #B45249",
"c. c #B9544A",
"v. c #BA594E",
"b. c #AE5B52",
"n. c #B15D53",
"m. c #83604F",
"M. c #846150",
"N. c #8A645B",
"B. c #8C6A5E",
"V. c #856458",
"C. c #95695D",
"Z. c #A46257",
"A. c #B56156",
"S. c #BB695B",
"D. c #8D6D62",
"F. c #966E61",
"G. c #8F7264",
"H. c #947164",
"J. c #9E7363",
"K. c #90766E",
"L. c #9D786A",
"P. c #9C7D74",
"I. c #B46D62",
"U. c #AB7569",
"Y. c #A57B6C",
"T. c #AB7C6D",
"R. c #A37666",
"E. c #A47C70",
"W. c #B67F70",
"Q. c #C16A5C",
"!. c #A88174",
"~. c #B78674",
"^. c #B98373",
"/. c #BC8B76",
"(. c #BC8D7A",
"). c #C18C77",
"_. c #C18E78",
"`. c #D08C76",
"'. c #C4927D",
"]. c #C9947D",
"[. c #C59581",
"{. c #C99782",
"}. c #CE9A83",
"|. c #D39C84",
" X c #DA9D85",
".X c #DCA389",
"XX c #D5A088",
"oX c #E1A68C",
"OX c #E6A98D",
"+X c #E8AB8F",
"@X c #ECAF92",
"#X c #ECB094",
"$X c None",
/* pixels */
"$X$X$X$X$X$X$X$X$X$X$X$X$X$X$X$X$X$X$X$X$X$X$X$X$X$X$X$X$X$X$X$X$X$X$X$X$X$X$X$X$X$X$X$X$X$X$X$X$X$X$X$X$X$X$X$X$X$X$X$X$X$X$X$X",
"$X$X$X$X$X$X$X$X$X$X$X$X$X$X$X$X$X$X$X$X$X$X$X$X$X$X$X$X$X$X$X$X$X$X$X$X$X$X$X$X$X$X$X$X$X$X$X$X$X$X$X$X$X$X$X$X$X$X$X$X$X$X$X$X",
"$X$X$X$X$X$X$X$X$X$X$X$X$X$X$X$X$X$X$X$X$X$X$X$X$X$X$X$X$X$X$X$X$X$X$X$X$X$X$X$X$X$X$X$X$X$X$X$X$X$X$X$X$X$X$X$X$X$X$X$X$X$X$X$X",
"$X$X$X$X$X$X$X$X$X$X$X$X$X$X$X$X$X$X$X$X$X$X$X$X$X$X$X$X$X$X$X$X$X$X$X$X$X$X$X$X$X$X$X$X$X$X$X$X$X$X$X$X$X$X$X$X$X$X$X$X$X$X$X$X",
"$X$X$X$X$X$X$X$X$X$X$X$X$X$X$X$X$X$X$X$X$X$X$X$X$X$X$X$X$X$X$X$X$X$X$X$X$X$X$X$X$X$X$X$X$X$X$X$X$X$X$X$X$X$X$X$X$X$X$X$X$X$X$X$X",
"$X$X$X$X$X$X$X$X$X$X$X$X$X$X$X$X$X$X$X$X$X$X$X$X$X$X$X$X$X$X$X$X$X$X$X$X$X$X$X$X$X$X$X$X$X$X$X$X$X$X$X$X$X$X$X$X$X$X$X$X$X$X$X$X",
"$X$X$X$X$X$X$X$X$X$X$X$X$X$X$X$X$X$X$X$X$X$X$X$X$X$X$X$X$X$X$X$X$X$X$X$X$X$X$X$X$X$X$X$X$X$X$X$X$X$X$X$X$X$X$X$X$X$X$X$X$X$X$X$X",
"$X$X$X$X$X$X$X$X$X$X$X$X$X$X$X$X$X$X$X$X$X$X$X$X$X$X$X$X$X$X$X$X$X$X$X$X$X$X$X$X$X$X$X$X$X$X$X$X$X$X$X$X$X$X$X$X$X$X$X$X$X$X$X$X",
"$X$X$X$X$X$X$X$X$X$X$X$X$X$X$X$X$X$X$X$X$X$X$X$X$X$X$X$X$X$X$X$X$X$X$X$X$X$X$X$X$X$X$X$X$X$X$X$X$X$X$X$X$X$X$X$X$X$X$X$X$X$X$X$X",
"$X$X$X$X$X$X$X$X$X$X$X$X$X$X$X$X$X$X$X$X$X$X$X$X$X$X$X$X$X$X$X$X$X$X$X$X$X$X$X$X$X$X$X$X$X$X$X$X$X$X$X$X$X$X$X$X$X$X$X$X$X$X$X$X",
"$X$X$X$X$X$X$X$X$X$X$X$X$X$X$X$X$X$X$X$X$X$X$X$X$X$X$X$X$X$X$X$X$X$X$X$X$X$X$X$X$X$X$X$X$X$X$X$X$X$X$X$X$X$X$X$X$X$X$X$X$X$X$X$X",
"$X$X$X$X$X$X$X$X$X$X$X$X$X$X$X$X$X$X$X$X$X$X$X$X$X$X$X$X$X$X$X$X$X$X$X$X$X$X$X$X$X$X$X$X$X$X$X$X$X$X$X$X$X$X$X$X$X$X$X$X$X$X$X$X",
"$X$X$X$X$X$X$X$X$X$X$X$X$X$X$X$X$X$X$X$X$X$X$X$X$X$X$X$X$X$X$X$X$X$X$X$X$X$X$X$X$X$X$X$X$X$X$X$X$X$X$X$X$X$X$X$X$X$X$X$X$X$X$X$X",
"$X$X$X$X$X$X$X$X$X$X$X$X$X$X$X$X$X$X$X$X$X$X$X$X$X$X$X$X$X$X$X$X$X$X$X$X$X$X$X$X$X$X$X$X$X$X$X$X$X$X$X$X$X$X$X$X$X$X$X$X$X$X$X$X",
"$X$X$X$X$X$X$X$X$X$X$X$X$X$X$X$X$X$X$X$X$X$X$X$X$X$X$X$X$X$X$X$X$X$X$X$X$X$X$X$X$X$X$X$X$X$X$X$X$X$X$X$X$X$X$X$X$X$X$X$X$X$X$X$X",
"$X$X$X$X$X$X$X$X$X$X$X$X$X$X$X$X$X$X$X$X$X$X$X$X$X$X$X$X$X$X$X$X$X$X$X$X$X$X$X$X$X$X$X$X$X$X$X$X$X$X$X$X$X$X$X$X$X$X$X$X$X$X$X$X",
"$X$X$X$X$X$X$X$X$X$X$X$X$X$X$X$X$X$X$X$X$X$X$X$X$X$X$X$X$X$X$X$X$X$X$X$X$X$X$X$X$X$X$X$X$X$X$X$X$X$X$X$X$X$X$X$X$X$X$X$X$X$X$X$X",
"$X$X$X$X$X$X$X$X$X$X$X$X$X$X$X$X$X$X$X$X$X$X$X$X$X$X$X$X$X$X$X$X$X$X$X$X$X$X$X$X$X$X$X$X$X$X$X$X$X$X$X$X$X$X$X$X$X$X$X$X$X$X$X$X",
"$X$X$X$X$X$X$X$X$X$X$X$X$X$X$X$X$X$X$X$X$X$X$X$X$X$X$X$X$X$X$X$X$X$X$X$X$X$X$X$X$X$X$X$X$X$X$X$X$X$X$X$X$X$X$X$X$X$X$X$X$X$X$X$X",
"$X$X$X$X$X$X$X$X$X$X$X$X$X$X$X$X$X$X$X$X$X$X$X$X$X$X$X$X$X$X$X$X$X$X$X$X$X$X$X$X$X$X$X$X$X$X$X$X$X$X$X$X$X$X$X$X$X$X$X$X$X$X$X$X",
"$X$X$X$X$X$X$X$X$X$X$X$X$X$X$X$X$X$X$X$X$X$X$X$X$X$X$X$X$X$X$X$X$X$X$X$X$X$X$X$X$X$X$X$X$X$X$X$X$X$X$X$X$X$X$X$X$X$X$X$X$X$X$X$X",
"$X$X$X$X$X$X$X$X$X$X$X$X$X$X$X$X$X$X$X$X$X$X$X$X$X$X$X$X$X$X$X$X$X$X$X$X$X$X$X$X$X$X$X$X$X$X$X$X$X$X$X$X$X$X$X$X$X$X$X$X$X$X$X$X",
"$X$X$X$X$X$X$X$X$X$X$X$X$X$X$X$X$X$X$X$X$X$X$X$X$X$X$X$X$X$X$X$X$X$X$X$X$X$X$X$X$X$X$X$X$X$X$X$X$X$X$X$X$X$X$X$X$X$X$X$X$X$X$X$X",
"$X$X$X$X$X$X$X$X$X$X$X$X$X$X$X$X$X$X$X$X$X$X$X$X$X$X$X$X$X$X$X$X$X$X$X$X$X$X$X$X$X$X$X$X$X$X$X$X$X$X$X$X$X$X$X$X$X$X$X$X$X$X$X$X",
"$X$X$X$X$X$X$X$X$X$X$X$X$X$X$X$X$X$X$X$X$X$X$X$X$X$X$X$Xi i i i i i i p $X$X$X$X$X$X$X$X$X$X$X$X$X$X$X$X$X$X$X$X$X$X$X$X$X$X$X$X",
"$X$X$X$X$X$X$X$X$X$X$X$X$X$X$X$X$X$X$X$X$X$X$X$X$X$X$X$Xv ( T U T T T a $X$X$X$X$X$X$X$X$X$X$X$X$X$X$X$X$X$X$X$X$X$X$X$X$X$X$X$X",
"$X$X$X$X$X$X$X$X$X$X$X$X$X$X$X$X$X$X$X$X$X$X$X$Xe e 9 K _ ` ) R ~ ~ R a 0 ; : : $X$X$X$X$X$X$X$X$X$X$X$X$X$X$X$X$X$X$X$X$X$X$X$X",
"$X$X$X$X$X$X$X$X$X$X$X$X$X$X$X$X$X$X$X$X$X$X$X$Xv ~ T ~ t.t.) R R R U a e q p q $X$X$X$X$X$X$X$X$X$X$X$X$X$X$X$X$X$X$X$X$X$X$X$X",
"$X$X$X$X$X$X$X$X$X$X$X$X$X$X$X$X$X$X$X$X$X$X8 a ) m.m.` ` ( v a a a a p p i c p 0 > $X$X$X$X$X$X$X$X$X$X$X$X$X$X$X$X$X$X$X$X$X$X",
"$X$X$X$X$X$X$X$X$X$X$X$X$X$X$X$X$X$X$X$X$X$Xa _ m.M.m.` ) R v p p i i p a U Y T a 0 $X$X$X$X$X$X$X$X$X$X$X$X$X$X$X$X$X$X$X$X$X$X",
"$X$X$X$X$X$X$X$X$X$X$X$X$X$X$X$X$X$X$X$Xe U ( M.M.m.` ) ( ( / T a e e a R / ( R T u 0 : $X$X$X$X$X$X$X$X$X$X$X$X$X$X$X$X$X$X$X$X",
"$X$X$X$X$X$X$X$X$X$X$X$X$X$X$X$X$X$X$X$Xe ~ M.M.m.` ) / ~ / ( R v p a c R ) ) ( R T p : $X$X$X$X$X$X$X$X$X$X$X$X$X$X$X$X$X$X$X$X",
"$X$X$X$X$X$X$X$X$X$X$X$X$X$X$X$X$X$X$X$Xi R m.M.` ) ) R R v Y T v v R R T R ( ) ) R p - $X$X$X$X$X$X$X$X$X$X$X$X$X$X$X$X$X$X$X$X",
"$X$X$X$X$X$X$X$X$X$X$X$X$X$X$X$X$X$X$X$Xt T ` ` ) R ( R T v v v v b ( ( v v R ( ) R p 0 $X$X$X$X$X$X$X$X$X$X$X$X$X$X$X$X$X$X$X$X",
"$X$X$X$X$X$X$X$X$X$X$X$X$X$X$X$X$X$X$X$Xp U ( ) ) ~ R Y R R v v U T ( / T v v R ) R U p 0 : $X$X$X$X$X$X$X$X$X$X$X$X$X$X$X$X$X$X",
"$X$X$X$X$X$X$X$X$X$X$X$X$X$X$X$X$X$X$X$Xe K R ( ( R v v ) ) R v c c ( ) R v v v R ) R T a : $X$X$X$X$X$X$X$X$X$X$X$X$X$X$X$X$X$X",
"$X$X$X$X$X$X$X$X$X$X$X$X$X$X$X$X$X$X$X$X: p / ) R v u v ` M.` T 6 q ` m._ R a v / _ ) R c : $X$X$X$X$X$X$X$X$X$X$X$X$X$X$X$X$X$X",
"$X$X$X$X$X$X$X$X$X$X$X$X$X$X$X$X$X$X$X$X: p R R v c p v ( ) R ) { a.` ) R v p p U R R T q ; $X$X$X$X$X$X$X$X$X$X$X$X$X$X$X$X$X$X",
"$X$X$X$X$X$X$X$X$X$X$X$X$X$X$X$X$X$X: 0 0 a v R v v a i q 9 6 ` ).)._ # > 9 t t q q r q $X$X$X$X$X$X$X$X$X$X$X$X$X$X$X$X$X$X$X$X",
"$X$X$X$X$X$X$X$X$X$X$X$X$X$X$X$X$X$X: p c c f v v v e a _ _ w V.XX.XJ.) { ` K K ) / p > $X$X$X$X$X$X$X$X$X$X$X$X$X$X$X$X$X$X$X$X",
"$X$X$X$X$X$X$X$X$X$X$X$X$X$X$X$X$X$X: p R R a p b c + R /.(.] -.}.OX|.].|.~.#.[ Y.Y.) > : 8 $X$X$X$X$X$X$X$X$X$X$X$X$X$X$X$X$X$X",
"$X$X$X$X$X$X$X$X$X$X$X$X$X$X$X$X$X$X: p R R c p a v R R..XXX=.*.].OXOXOX@X|.=.X.!.!._ 6 q : $X$X$X$X$X$X$X$X$X$X$X$X$X$X$X$X$X$X",
"$X$X$X$X$X$X$X$X$X$X$X$X$X$X$X$X$X$X: p c c K p 6 _ ~.|.OX{.X.X.{.OX.XoXOX{.-.N | N.T 0 0 3 $X$X$X$X$X$X$X$X$X$X$X$X$X$X$X$X$X$X",
"$X$X$X$X$X$X$X$X$X$X$X$X$X$X$X$X$X$X: 0 q f b b 9 N.|.#X+X}.K.K.}.OX.XoXOX}.P.$.} E g y y 7 $X$X$X$X$X$X$X$X$X$X$X$X$X$X$X$X$X$X",
"$X$X$X$X$X$X$X$X$X$X$X$X$X$X$X$X$X$X$X$Xs j :.,.Y H.|.@X@X.X|.|..XoX.XOXOXoX.X[.G.~ ,.:.j s $X$X$X$X$X$X$X$X$X$X$X$X$X$X$X$X$X$X",
"$X$X$X$X$X$X$X$X$X$X$X$X$X$X$X$X$X$X$X$Xk ,.>.,.Y B./.|.{.}..X.XXXXX|.|.}.}. X'.D.Y ,.>.,.k $X$X$X$X$X$X$X$X$X$X$X$X$X$X$X$X$X$X",
"$X$X$X$X$X$X$X$X$X$X$X$X$X$X$X$X$X$X* u b ( W b q L N.H.D.L.(.{.].'.{.(.L.G.J.D.R i g W ! R u - $X$X$X$X$X$X$X$X$X$X$X$X$X$X$X$X",
"$X$X$X$X$X$X$X$X$X$X$X$X$X$X$X$X$X$X; c / R L r 6 t ~ ^ Q s.U.^.^.W.^.U.a.Y E U 1 ; p L / R c ; $X$X$X$X$X$X$X$X$X$X$X$X$X$X$X$X",
"$X$X$X$X$X$X$X$X$X$X$X$X$X$X$X$X$X$X1 r p r 0 0 t x e.l.f.l.n.A.A.n.n.b.e.8.9.x $X$X0 p p p r 1 $X$X$X$X$X$X$X$X$X$X$X$X$X$X$X$X",
"$X$X$X$X$X$X$X$X$X$X$X$X$X$X$X$X$X$X8 1 ; : 8 y x w.j.c.c.x.j.j.j.j.j.j.h.h.8.l $X$X1 : ; 1 1 8 $X$X$X$X$X$X$X$X$X$X$X$X$X$X$X$X",
"$X$X$X$X$X$X$X$X$X$X$X$X$X$X$X$X$X$X$X$X$X$Xh 9.f.z.x.x.x.c.x.x.x.x.z.z.x.f.9.g K H $X$X$X$X$X$X$X$X$X$X$X$X$X$X$X$X$X$X$X$X$X$X",
"$X$X$X$X$X$X$X$X$X$X$X$X$X$X$X$X$X$X$X$X$X$Xx q.l.c.x.g.g.g.x.x.x.x.x.x.c.l.1.Q D.{ $X$X$X$X$X$X$X$X$X$X$X$X$X$X$X$X$X$X$X$X$X$X",
"$X$X$X$X$X$X$X$X$X$X$X$X$X$X$X$X$X$X$X$X$X$XM q.l.x.j.4.>.3.g.c.x.x.x.x.c.f.<.u.U.E.{ H $X$X$X$X$X$X$X$X$X$X$X$X$X$X$X$X$X$X$X$X",
"$X$X$X$X$X$X$X$X$X$X$X$X$X$X$X$X$X$X$X$X$X$Xl q.g.v.S.S.b.d.k.l.z.x.x.x.c.f.j p.~.(.H.J $X$X$X$X$X$X$X$X$X$X$X$X$X$X$X$X$X$X$X$X",
"$X$X$X$X$X$X$X$X$X$X$X$X$X$X$X$X$X$X$X$X$X$Xz w.j.Q.`.|.}.).C.y.l.x.x.x.c.f.j p.~.(.H.J $X$X$X$X$X$X$X$X$X$X$X$X$X$X$X$X$X$X$X$X",
"$X$X$X$X$X$X$X$X$X$X$X$X$X$X$X$X$X$X$X$X$X$Xz 1.3.Q. X@X@X|.G.~ f.j.z.z.x.f.<.u.T.E.{ J $X$X$X$X$X$X$X$X$X$X$X$X$X$X$X$X$X$X$X$X",
"$X$X$X$X$X$X$X$X$X$X$X$X$X$X$X$X$X$X$X$X$X$X$X$Xd I. X@X@X|.H.! w.6.6.6.6.h.<.W N.{ $X$X$X$X$X$X$X$X$X$X$X$X$X$X$X$X$X$X$X$X$X$X",
"$X$X$X$X$X$X$X$X$X$X$X$X$X$X$X$X$X$X$X$X$X$X$X$X5 s.).|.|.).D.[ u.i.i.i.i.0.M f K H $X$X$X$X$X$X$X$X$X$X$X$X$X$X$X$X$X$X$X$X$X$X",
"$X$X$X$X$X$X$X$X$X$X$X$X$X$X$X$X$X$X$X$X$X$X$X$X$X$XF.R.R.B.*.@.$.$.$.$.$.X.I w $X$X$X$X$X$X$X$X$X$X$X$X$X$X$X$X$X$X$X$X$X$X$X$X",
"$X$X$X$X$X$X$X$X$X$X$X$X$X$X$X$X$X$X$X$X$X$X$X$X$X$XL ' ' X.@.G F F F F G F A < $X$X$X$X$X$X$X$X$X$X$X$X$X$X$X$X$X$X$X$X$X$X$X$X",
"$X$X$X$X$X$X$X$X$X$X$X$X$X$X$X$X$X$X$X$X$X$X$X$X$X$X4 P o.&.%.+.A V B A ....Z n $X$X$X$X$X$X$X$X$X$X$X$X$X$X$X$X$X$X$X$X$X$X$X$X",
"$X$X$X$X$X$X$X$X$X$X$X$X$X$X$X$X$X$X$X$X$X$X$X$X$X$X< S D %.%. .V = * 4 Z Z m 2 $X$X$X$X$X$X$X$X$X$X$X$X$X$X$X$X$X$X$X$X$X$X$X$X",
"$X$X$X$X$X$X$X$X$X$X$X$X$X$X$X$X$X$X$X$X$X$X$X$X$X$X@ < 2 V C V , . @ = 2 2 , & $X$X$X$X$X$X$X$X$X$X$X$X$X$X$X$X$X$X$X$X$X$X$X$X",
"$X$X$X$X$X$X$X$X$X$X$X$X$X$X$X$X$X$X$X$X$X$X$X$X$X$X  . O - 3 3 @ X   . & # @   $X$X$X$X$X$X$X$X$X$X$X$X$X$X$X$X$X$X$X$X$X$X$X$X"
};
