/* XPM */
static char *result[] = {
/* columns rows colors chars-per-pixel */
"64 64 29 1 ",
"  c #113445",
". c #123445",
"X c #123446",
"o c #123546",
"O c #123547",
"+ c #123647",
"@ c #123648",
"# c #123749",
"$ c #12374A",
"% c #12384A",
"& c #12384B",
"* c #13384B",
"= c #13394C",
"- c #13394D",
"; c #133A4D",
": c #133A4E",
"> c #133B4E",
", c #133B4F",
"< c #133C50",
"1 c #143C50",
"2 c #143C51",
"3 c #143D51",
"4 c #143D52",
"5 c #143E52",
"6 c #143E53",
"7 c #143E54",
"8 c #143F54",
"9 c #143F55",
"0 c #144055",
/* pixels */
"6666666666666666666666666666666666666666666666666666666666666666",
"6666666666666666666666666666666666666666666666666666666666666666",
"6666666666666666666666666666666666666666666666666666666666666666",
"6666666666666666666666666666666666666666666666666666666666666666",
"6666666666666666666666666666677777766666666666666666666666666666",
"6666666666666666666666666666788888876666666666666666666666666666",
"6666666666666666666666666666666666666666666666666666666666666666",
"6666666666666666666666666665444444445666666666666666666666666666",
"6666666666666666666666666643<<,,,,<<3466666666666666666666666666",
"666666666666666666666666663<:;====;:<366666666666666666666666666",
"666666666666666666666667752>=%####%=>267766666666666666666666666",
"66666666666666666666666875<;&@OooO@&;<57866666666666666666666666",
"66666666666666666666667885<;$OX  XO$;<68876666666666666666666666",
"66666666666666666666778986<;$O.  .O$;<68988766666666666666666666",
"666666666666666666678889962;$O.  .O$;269988876666666666666666666",
"666666666666666666667788861;%@oXXo@%;168888766666666666666666666",
"66666666666666666664446664<:*#@@@@#*:<46664455666666666666666666",
"66666666666666666431<<<<<<,:-=****==:,<<<<<<23466666666666666666",
"666666666666666663<>;---;;;::>>>>>>::;;;---;><366666666666666666",
"666666666666667641>=%$##$&=:,234432,:=&$##$%=>246766666666666666",
"66666666666667874<;%@OOOO#*:26788762:*#OOOO@%;<47876666666666666",
"66666666666668874<-#OX..X@&:36900963:&@X..XO#-<48876666666666666",
"66666666666678885<-#O.  .O%:26900962:%O.  .O#-<68887666666666666",
"66666666667889986<-#O.  XO%;26899862;%OX  .O#-<68998876666666666",
"66666666667788986<;$OX.Xo@%:16888861:&@oX.XO$;<68988776666666666",
"66666666665566664<;&#@O+@#=:26888862:=#@+O@#&;<46666566666666666",
"66666666432<<<21<,;=*&%%&=;,36788763,;=%%%&*=;,<12<<<23466666666",
"666666653<>;;;;;:::::::;::,2466776642,::;:::::::;;;;;><356666666",
"66666764<:=&$$$%*=:,232212345666666543212232,:-*%$$$&=:<46766666",
"66667864<;%@OOO@#=>26666666666666666666666662>=#@OOO@%;<46876666",
"66667864,=#OX..o@*>37998887666666666678889973>*@o..XO#=,46876666",
"66667864,=#o   X@*>48009888766666666788890084>*@X   o#=,46876666",
"66667864,=#o   X@*>48009888766666666788890084>*@X   o#=,46876666",
"66667864,=#OX..o@*>37998887666666666678889973>*@o..XO#=,46876666",
"66667864<;%@OOO@#=>26666666666666666666666662>=#@OOO@%;<46876666",
"66666764<:=&$$$%*=:,232212345666666543212232,:-*%$$$&=:<46766666",
"666666653<>;;;;;:::::::;::,2466776642,::;:::::::;;;;;><356666666",
"66666666432<<<21<,;=*&%%&=;,36788763,;=%%%&*=;,<12<<<23466666666",
"66666666665556664<;&#@O+@#=:26888862:=#@+O@#&;<46665566666666666",
"66666666667788986<;$OX.Xo@%:16888861:&@oX.XO$;<68988776666666666",
"66666666668889986<-#O.  XO%;26899862;%OX  .O#-<68998876666666666",
"66666666666678885<-#O.  .O%:26900962:%O.  .O#-<68887666666666666",
"66666666666667874<-#OX..X@&:36900963:&@X..XO#-<48876666666666666",
"66666666666667874<;%@OOOO#*:26788762:*#OOOO@%;<47876666666666666",
"666666666666667641>=%$##$&=:,234432,:=&$##$%=>246766666666666666",
"666666666666666663<>;---;;;::>>>>>>::;;;---;><366666666666666666",
"66666666666666666431<<<<<<,:-=****==:,<<<<<<23466666666666666666",
"66666666666666666664445664<:*#@@@@#*:<46654445666666666666666666",
"666666666666666666667788861;%@oXXo@%;168888766666666666666666666",
"666666666666666666678889962;$O.  .O$;269988876666666666666666666",
"66666666666666666666778986<;$O.  .O$;<68988766666666666666666666",
"66666666666666666666667885<;$OX  XO$;<68876666666666666666666666",
"66666666666666666666666875<;&@OooO@&;<57866666666666666666666666",
"666666666666666666666667752>=%####%=>267766666666666666666666666",
"666666666666666666666666663<:;====;:<366666666666666666666666666",
"6666666666666666666666666643<<,,,,<<3466666666666666666666666666",
"6666666666666666666666666665444444445666666666666666666666666666",
"6666666666666666666666666666666666666666666666666666666666666666",
"6666666666666666666666666666788888876666666666666666666666666666",
"6666666666666666666666666666677777766666666666666666666666666666",
"6666666666666666666666666666666666666666666666666666666666666666",
"6666666666666666666666666666666666666666666666666666666666666666",
"6666666666666666666666666666666666666666666666666666666666666666",
"6666666666666666666666666666666666666666666666666666666666666666"
};
